<svg width="184" height="68" viewBox="0 0 184 68" fill="none" xmlns="http://www.w3.org/2000/svg">
<g id="logo">
<g id="MoGo">
<path d="M13.6714 45.9376V35.6108L9.93619 43.1301H7.739L4.00377 35.6108V45.9376H0V28.6042H4.34556L8.83759 37.6616L13.354 28.6042H17.6752V45.9376H13.6714Z" fill="white"/>
<path d="M26.5753 46.1818C25.1105 46.1818 23.8655 45.8725 22.8401 45.2541C21.831 44.6356 21.058 43.8218 20.5209 42.8128C19.9838 41.8037 19.7152 40.7132 19.7152 39.5414C19.7152 38.3533 19.9838 37.2547 20.5209 36.2456C21.058 35.2365 21.8392 34.4227 22.8645 33.8043C23.8899 33.1858 25.1268 32.8766 26.5753 32.8766C28.0239 32.8766 29.2608 33.1858 30.2862 33.8043C31.3115 34.4227 32.0927 35.2365 32.6298 36.2456C33.1669 37.2547 33.4355 38.3533 33.4355 39.5414C33.4355 40.7132 33.1669 41.8037 32.6298 42.8128C32.0927 43.8218 31.3115 44.6356 30.2862 45.2541C29.2608 45.8725 28.0239 46.1818 26.5753 46.1818ZM23.719 39.5414C23.719 40.5342 23.9875 41.3398 24.5246 41.9583C25.078 42.5768 25.7616 42.886 26.5753 42.886C27.3728 42.886 28.0401 42.5768 28.5772 41.9583C29.1306 41.3398 29.4073 40.5342 29.4073 39.5414C29.4073 38.5486 29.1306 37.7429 28.5772 37.1245C28.0401 36.506 27.3728 36.1968 26.5753 36.1968C25.7616 36.1968 25.078 36.506 24.5246 37.1245C23.9875 37.7429 23.719 38.5486 23.719 39.5414Z" fill="white"/>
<path d="M43.0385 46.0597C41.8992 46.0597 40.825 45.8481 39.8159 45.425C38.8231 44.9855 37.9361 44.3752 37.1549 43.594C36.3899 42.7965 35.7877 41.8606 35.3483 40.7865C34.9251 39.696 34.7135 38.4835 34.7135 37.1489C34.7135 35.9445 34.9251 34.8215 35.3483 33.7799C35.7877 32.7382 36.398 31.8187 37.1793 31.0212C37.9768 30.2237 38.8963 29.6052 39.938 29.1657C40.9959 28.71 42.1352 28.4822 43.3558 28.4822C44.9508 28.4822 46.3505 28.824 47.5549 29.5075C48.7756 30.1911 49.687 31.1107 50.2892 32.2662L47.3108 34.5123C46.9202 33.7473 46.3505 33.1451 45.6018 32.7057C44.8532 32.2662 44.0557 32.0465 43.2093 32.0465C42.3305 32.0465 41.5574 32.2825 40.8901 32.7545C40.2228 33.2102 39.702 33.8368 39.3276 34.6343C38.9533 35.4318 38.7661 36.3188 38.7661 37.2954C38.7661 38.2882 38.9614 39.1833 39.3521 39.9808C39.7427 40.762 40.2798 41.3805 40.9633 41.8362C41.6632 42.2757 42.4688 42.4954 43.3802 42.4954C44.9427 42.4954 46.3505 41.7793 47.6037 40.347V39.7855H44.2347V36.8803H50.9239V45.9376H47.6037V44.2287C46.2854 45.4494 44.7637 46.0597 43.0385 46.0597Z" fill="white"/>
<path d="M59.3568 46.1818C57.892 46.1818 56.6469 45.8725 55.6216 45.2541C54.6125 44.6356 53.8394 43.8218 53.3023 42.8128C52.7652 41.8037 52.4967 40.7132 52.4967 39.5414C52.4967 38.3533 52.7652 37.2547 53.3023 36.2456C53.8394 35.2365 54.6206 34.4227 55.646 33.8043C56.6713 33.1858 57.9083 32.8766 59.3568 32.8766C60.8053 32.8766 62.0423 33.1858 63.0676 33.8043C64.093 34.4227 64.8742 35.2365 65.4113 36.2456C65.9484 37.2547 66.2169 38.3533 66.2169 39.5414C66.2169 40.7132 65.9484 41.8037 65.4113 42.8128C64.8742 43.8218 64.093 44.6356 63.0676 45.2541C62.0423 45.8725 60.8053 46.1818 59.3568 46.1818ZM56.5005 39.5414C56.5005 40.5342 56.769 41.3398 57.3061 41.9583C57.8595 42.5768 58.543 42.886 59.3568 42.886C60.1543 42.886 60.8216 42.5768 61.3587 41.9583C61.9121 41.3398 62.1887 40.5342 62.1887 39.5414C62.1887 38.5486 61.9121 37.7429 61.3587 37.1245C60.8216 36.506 60.1543 36.1968 59.3568 36.1968C58.543 36.1968 57.8595 36.506 57.3061 37.1245C56.769 37.7429 56.5005 38.5486 56.5005 39.5414Z" fill="white"/>
</g>
</g>
</svg>
