<svg width="73" height="74" viewBox="0 0 73 74" fill="none" xmlns="http://www.w3.org/2000/svg">
<g id="Group">
<path id="Vector" d="M37.5001 71.3334C31.8308 71.3385 26.2433 69.9809 21.2084 67.375C20.9649 67.2492 20.7486 67.0766 20.5718 66.8672C20.395 66.6577 20.2612 66.4155 20.178 66.1543C20.0948 65.8932 20.0639 65.6182 20.0869 65.3451C20.11 65.0719 20.1867 64.806 20.3125 64.5625C20.4384 64.3191 20.611 64.1027 20.8204 63.9259C21.0299 63.7491 21.2721 63.6153 21.5333 63.5321C21.7944 63.449 22.0694 63.418 22.3425 63.4411C22.6157 63.4642 22.8816 63.5409 23.125 63.6667C29.8688 67.0975 37.6262 67.9722 44.9646 66.1293C52.303 64.2864 58.7267 59.8503 63.0493 53.6403C67.3719 47.4303 69.3014 39.866 68.4815 32.3443C67.6616 24.8225 64.1476 17.8516 58.5886 12.7187C53.0296 7.58592 45.801 4.63799 38.2379 4.41939C30.6748 4.20079 23.288 6.72628 17.4418 11.5295C11.5956 16.3326 7.68492 23.089 6.43194 30.5508C5.17896 38.0126 6.66835 45.6758 10.625 52.1251C10.9042 52.6023 10.9863 53.1694 10.854 53.7062C10.7218 54.243 10.3856 54.7071 9.91672 55C9.68181 55.1437 9.42077 55.2394 9.14867 55.2815C8.87657 55.3236 8.59882 55.3114 8.33148 55.2455C8.06413 55.1797 7.81249 55.0615 7.59111 54.8977C7.36973 54.734 7.183 54.528 7.04172 54.2917C2.46923 46.9695 0.728501 38.2294 2.14669 29.7141C3.56488 21.1987 8.04434 13.4945 14.7431 8.04953C21.4419 2.60452 29.8988 -0.206392 38.5243 0.145117C47.1497 0.496626 55.3499 3.98635 61.5834 9.95839C66.3973 14.4203 69.8766 20.1321 71.633 26.4564C73.3893 32.7808 73.3537 39.4688 71.5299 45.774C69.7062 52.0793 66.1662 57.7537 61.3049 62.164C56.4437 66.5742 50.4525 69.5469 44.0001 70.75C41.8566 71.1489 39.6803 71.3443 37.5001 71.3334V71.3334Z" fill="#95E1D3"/>
<path id="Vector_2" d="M5.16666 73.5001C4.35897 73.4849 3.56747 73.2708 2.86216 72.8769C2.15685 72.4831 1.55947 71.9214 1.12283 71.2418C0.686194 70.5621 0.423759 69.7853 0.35873 68.9801C0.293701 68.1749 0.428084 67.366 0.749995 66.6251L7.08333 52.3751C7.31908 51.8701 7.74381 51.4779 8.266 51.283C8.78819 51.0882 9.36603 51.1063 9.87499 51.3334C10.3771 51.5608 10.7686 51.9779 10.9638 52.4933C11.1591 53.0087 11.1421 53.5805 10.9167 54.0834L4.54166 68.3334C4.46052 68.4416 4.41666 68.5732 4.41666 68.7084C4.41666 68.8437 4.46052 68.9753 4.54166 69.0834C4.63268 69.1876 4.7522 69.2628 4.88548 69.2999C5.01876 69.3369 5.15996 69.3341 5.29166 69.2918L21.3333 63.5834C21.59 63.4847 21.8641 63.4388 22.139 63.4486C22.4138 63.4583 22.6839 63.5236 22.933 63.6403C23.182 63.7571 23.4049 63.9229 23.5883 64.1279C23.7716 64.333 23.9117 64.5729 24 64.8334C24.1876 65.3528 24.1614 65.9255 23.927 66.4255C23.6926 66.9256 23.2692 67.3121 22.75 67.5001L6.83333 73.2084C6.30018 73.4064 5.73535 73.5053 5.16666 73.5001Z" fill="#95E1D3"/>
</g>
</svg>
