<svg width="24" height="29" viewBox="0 0 24 29" fill="none" xmlns="http://www.w3.org/2000/svg">
<g id="Group">
<path id="Vector" d="M12.5459 14.2287C11.1654 14.2287 9.81591 13.8193 8.66808 13.0524C7.52026 12.2854 6.62564 11.1953 6.09735 9.91993C5.56906 8.64453 5.43084 7.24112 5.70016 5.88717C5.96948 4.53322 6.63424 3.28953 7.61039 2.31339C8.58653 1.33724 9.83022 0.672479 11.1842 0.403161C12.5381 0.133843 13.9415 0.272067 15.2169 0.800353C16.4923 1.32864 17.5824 2.22326 18.3494 3.37109C19.1163 4.51891 19.5257 5.86839 19.5257 7.24887C19.5223 9.099 18.7859 10.8724 17.4776 12.1806C16.1694 13.4889 14.396 14.2253 12.5459 14.2287ZM12.5459 1.5381C11.4164 1.5381 10.3123 1.87304 9.37313 2.50054C8.434 3.12805 7.70204 4.01995 7.26981 5.06345C6.83757 6.10696 6.72448 7.2552 6.94483 8.36298C7.16518 9.47076 7.70908 10.4883 8.50775 11.287C9.30641 12.0857 10.324 12.6295 11.4317 12.8499C12.5395 13.0703 13.6878 12.9572 14.7313 12.5249C15.7748 12.0927 16.6667 11.3607 17.2942 10.4216C17.9217 9.48247 18.2566 8.37835 18.2566 7.24887C18.2533 5.73531 17.6505 4.2847 16.5803 3.21445C15.51 2.1442 14.0594 1.54146 12.5459 1.5381Z" fill="white"/>
<path id="Vector_2" d="M1.1244 24.3811C0.95611 24.3811 0.794715 24.3143 0.675718 24.1953C0.55672 24.0763 0.489868 23.9149 0.489868 23.7466C0.493227 20.8867 1.63079 18.145 3.65302 16.1227C5.67524 14.1005 8.41701 12.963 11.2769 12.9596H13.815C13.9833 12.9596 14.1447 13.0264 14.2637 13.1454C14.3827 13.2644 14.4495 13.4258 14.4495 13.5941C14.4495 13.7624 14.3827 13.9238 14.2637 14.0428C14.1447 14.1618 13.9833 14.2287 13.815 14.2287H11.2769C8.75255 14.2287 6.33163 15.2314 4.54667 17.0164C2.76171 18.8014 1.75893 21.2223 1.75893 23.7466C1.75893 23.9149 1.69207 24.0763 1.57308 24.1953C1.45408 24.3143 1.29269 24.3811 1.1244 24.3811Z" fill="white"/>
<path id="Vector_3" d="M18.2567 28.1884C18.0884 28.1884 17.927 28.1215 17.808 28.0025C17.689 27.8835 17.6222 27.7221 17.6222 27.5538V17.4014C17.6222 17.2331 17.689 17.0717 17.808 16.9527C17.927 16.8337 18.0884 16.7668 18.2567 16.7668C18.425 16.7668 18.5864 16.8337 18.7054 16.9527C18.8244 17.0717 18.8913 17.2331 18.8913 17.4014V27.5538C18.8913 27.7221 18.8244 27.8835 18.7054 28.0025C18.5864 28.1215 18.425 28.1884 18.2567 28.1884Z" fill="white"/>
<path id="Vector_4" d="M23.3329 23.1121H13.1804C13.0121 23.1121 12.8507 23.0452 12.7317 22.9262C12.6127 22.8072 12.5459 22.6458 12.5459 22.4775C12.5459 22.3093 12.6127 22.1479 12.7317 22.0289C12.8507 21.9099 13.0121 21.843 13.1804 21.843H23.3329C23.5012 21.843 23.6626 21.9099 23.7816 22.0289C23.9006 22.1479 23.9674 22.3093 23.9674 22.4775C23.9674 22.6458 23.9006 22.8072 23.7816 22.9262C23.6626 23.0452 23.5012 23.1121 23.3329 23.1121Z" fill="white"/>
</g>
</svg>
